<svg width="22" height="22" viewBox="0 0 22 22" fill="none" xmlns="http://www.w3.org/2000/svg">
<rect width="22" height="22" rx="11" fill="#E6F7FF"/>
<path d="M11 6.625C8.08337 6.625 5.59254 8.43917 4.58337 11C5.59254 13.5608 8.08337 15.375 11 15.375C13.9167 15.375 16.4075 13.5608 17.4167 11C16.4075 8.43917 13.9167 6.625 11 6.625ZM11 13.9167C9.39004 13.9167 8.08337 12.61 8.08337 11C8.08337 9.39 9.39004 8.08333 11 8.08333C12.61 8.08333 13.9167 9.39 13.9167 11C13.9167 12.61 12.61 13.9167 11 13.9167ZM11 9.25C10.0317 9.25 9.25004 10.0317 9.25004 11C9.25004 11.9683 10.0317 12.75 11 12.75C11.9684 12.75 12.75 11.9683 12.75 11C12.75 10.0317 11.9684 9.25 11 9.25Z" fill="#1890FF"/>
</svg>
