<svg width="22" height="22" viewBox="0 0 22 22" fill="none" xmlns="http://www.w3.org/2000/svg">
<rect width="22" height="22" rx="11" fill="#E6F7FF"/>
<path d="M10.4167 8.08317H11.5833V9.24984H10.4167V8.08317ZM10.4167 10.4165H11.5833V13.9165H10.4167V10.4165ZM11 5.1665C7.78 5.1665 5.16667 7.77984 5.16667 10.9998C5.16667 14.2198 7.78 16.8332 11 16.8332C14.22 16.8332 16.8333 14.2198 16.8333 10.9998C16.8333 7.77984 14.22 5.1665 11 5.1665ZM11 15.6665C8.4275 15.6665 6.33333 13.5723 6.33333 10.9998C6.33333 8.42734 8.4275 6.33317 11 6.33317C13.5725 6.33317 15.6667 8.42734 15.6667 10.9998C15.6667 13.5723 13.5725 15.6665 11 15.6665Z" fill="#1890FF"/>
</svg>
