<svg width="22" height="22" viewBox="0 0 22 22" fill="none" xmlns="http://www.w3.org/2000/svg">
<rect width="22" height="22" rx="11" fill="#E6F7FF"/>
<path d="M11.5833 8.08329H10.4166V10.4166H8.08329V11.5833H10.4166V13.9166H11.5833V11.5833H13.9166V10.4166H11.5833V8.08329ZM11 5.16663C7.77996 5.16663 5.16663 7.77996 5.16663 11C5.16663 14.22 7.77996 16.8333 11 16.8333C14.22 16.8333 16.8333 14.22 16.8333 11C16.8333 7.77996 14.22 5.16663 11 5.16663ZM11 15.6666C8.42746 15.6666 6.33329 13.5725 6.33329 11C6.33329 8.42746 8.42746 6.33329 11 6.33329C13.5725 6.33329 15.6666 8.42746 15.6666 11C15.6666 13.5725 13.5725 15.6666 11 15.6666Z" fill="#1890FF"/>
</svg>
