<svg width="22" height="22" viewBox="0 0 22 22" fill="none" xmlns="http://www.w3.org/2000/svg">
<rect width="22" height="22" rx="11" fill="#E6F7FF"/>
<path d="M14.2958 7.70421C13.4499 6.85837 12.2891 6.33337 10.9999 6.33337C8.42161 6.33337 6.33911 8.42171 6.33911 11C6.33911 13.5784 8.42161 15.6667 10.9999 15.6667C13.1758 15.6667 14.9899 14.1792 15.5091 12.1667H14.2958C13.8174 13.5259 12.5224 14.5 10.9999 14.5C9.06911 14.5 7.49994 12.9309 7.49994 11C7.49994 9.06921 9.06911 7.50004 10.9999 7.50004C11.9683 7.50004 12.8316 7.90254 13.4616 8.53837L11.5833 10.4167H15.6666V6.33337L14.2958 7.70421Z" fill="#1890FF"/>
</svg>
