<svg width="12" height="16" viewBox="0 0 12 16" fill="none" xmlns="http://www.w3.org/2000/svg">
<path d="M7.5 0.5H1.5C0.675 0.5 0.00750017 1.175 0.00750017 2L0 14C0 14.825 0.6675 15.5 1.4925 15.5H10.5C11.325 15.5 12 14.825 12 14V5L7.5 0.5ZM10.5 14H1.5V2H6.8775L10.5 5.6225V14ZM3.3375 6.9275L2.46 6.05V8.75H5.16L4.08 7.67C4.47 6.9125 5.265 6.3875 6.1725 6.3875C7.4775 6.3875 8.535 7.445 8.535 8.75C8.535 10.055 7.4775 11.1125 6.1725 11.1125C5.37 11.1125 4.6575 10.7075 4.2375 10.1H3.075C3.5925 11.285 4.785 12.125 6.165 12.125C8.025 12.125 9.54 10.61 9.54 8.75C9.54 6.89 8.025 5.375 6.165 5.375C4.9725 5.375 3.9375 5.9975 3.3375 6.9275Z" fill="#1890FF"/>
</svg>
