<svg width="16" height="15" viewBox="0 0 16 15" fill="none" xmlns="http://www.w3.org/2000/svg">
<path d="M11 4.24997L13.6625 7.99997L12.44 9.71747L13.5125 10.79L15.5 7.99997L12.2225 3.37997C11.9525 2.99747 11.5025 2.74997 11 2.74997L5.4725 2.75747L6.9725 4.24997H11ZM0.5 2.02247L1.685 3.20747C1.415 3.46997 1.25 3.84497 1.25 4.24997V11.75C1.25 12.575 1.925 13.2425 2.75 13.2425L11 13.25C11.21 13.25 11.4125 13.1975 11.5925 13.115L13.2275 14.75L14.285 13.6925L1.5575 0.964966L0.5 2.02247ZM10.2275 11.75H2.75V4.27247L10.2275 11.75Z" fill="#1890FF"/>
</svg>
